{"title":"Frozen.River.2008.XviD.Swe_Sub.avi","uid":5472604,"size":951257004,"categoryP":"video","categoryS":"movies","magnet":"?xt=urn:btih:0013c05d059aca345b159967d2e14d9bc36c502a&amp;dn=Frozen.River.2008.XviD.Swe_Sub.avi&amp;tr=udp%3A%2F%2Ftracker.openbittorrent.com%3A80&amp;tr=udp%3A%2F%2Fopen.demonii.com%3A1337&amp;tr=udp%3A%2F%2Ftracker.coppersurfer.tk%3A6969&amp;tr=udp%3A%2F%2Fexodus.desync.com%3A6969","seeders":0,"leechers":1,"uploader":"Zen_Bud","files":-1,"time":1269966552,"description":"General\nComplete name                    : Frozen.River.XviD.Swe_Sub.avi\nFormat                           : AVI\nFormat/Info                      : Audio Video Interleave\nFile size                        : 907 MiB\nDuration                         : 1h 36mn\nOverall bit rate                 : 1 309 Kbps\n\nVideo\nID                               : 0\nFormat                           : MPEG-4 Visual\nCodec ID/Hint                    : XviD\nDuration                         : 1h 36mn\nBit rate                         : 1 168 Kbps\nWidth                            : 718 pixels\nHeight                           : 480 pixels\nDisplay aspect ratio             : 16:9\nResolution                       : 8 bits\nColorimetry                      : 4:2:0\nScan type                        : Progressive\nBits/(Pixel*Frame)               : 0.141\nStream size                      : 810 MiB (89%)\nWriting library                  : XviD 1.1.2 (UTC 2006-11-01)\n\nAudio\nID                               : 1\nFormat                           : MPEG Audio\nFormat version                   : Version 1\nFormat profile                   : Layer 3\nMode                             : Joint stereo\nFormat_Settings_ModeExtension    : MS Stereo\nCodec ID                         : 55\nCodec ID/Hint                    : MP3\nDuration                         : 1h 36mn\nBit rate mode                    : Constant\nBit rate                         : 128 Kbps\nChannel(s)                       : 2 channels\nSampling rate                    : 48.0 KHz\nStream size                      : 88.7 MiB (10%)\nAlignment                        : Split accross interleaves\nInterleave, duration             : 24 ms (0.58 video frame)\nWriting library                  : LAME3.98\n\n","torrent":{"xt":"urn:btih:0013c05d059aca345b159967d2e14d9bc36c502a","amp;dn":"Frozen.River.2008.XviD.Swe_Sub.avi","amp;tr":["udp%3A%2F%2Ftracker.openbittorrent.com%3A80","udp%3A%2F%2Fopen.demonii.com%3A1337","udp%3A%2F%2Ftracker.coppersurfer.tk%3A6969","udp%3A%2F%2Fexodus.desync.com%3A6969"],"infoHash":"0013c05d059aca345b159967d2e14d9bc36c502a","infoHashBuffer":{"type":"Buffer","data":[0,19,192,93,5,154,202,52,91,21,153,103,210,225,77,155,195,108,80,42]},"announce":[],"urlList":[]}}